<svg id="visual" viewBox="0 0 960 540" width="960" height="540" xmlns="http://www.w3.org/2000/svg" xmlns:xlink="http://www.w3.org/1999/xlink" version="1.1"><rect x="0" y="0" width="960" height="540" fill="#FFFFFF"></rect><g fill="none" stroke="#ececec" stroke-width="2"><circle r="11" cx="614" cy="281"></circle><circle r="-1" cx="8" cy="408"></circle><circle r="3" cx="542" cy="258"></circle><circle r="-2" cx="390" cy="194"></circle><circle r="1" cx="705" cy="434"></circle><circle r="0" cx="245" cy="349"></circle><circle r="-1" cx="940" cy="534"></circle><circle r="4" cx="423" cy="121"></circle><circle r="7" cx="597" cy="83"></circle><circle r="-2" cx="470" cy="27"></circle><circle r="2" cx="148" cy="539"></circle><circle r="-2" cx="168" cy="89"></circle><circle r="5" cx="114" cy="180"></circle><circle r="-2" cx="78" cy="370"></circle><circle r="4" cx="331" cy="115"></circle><circle r="2" cx="670" cy="392"></circle><circle r="2" cx="541" cy="457"></circle><circle r="8" cx="61" cy="86"></circle><circle r="9" cx="20" cy="511"></circle><circle r="6" cx="819" cy="441"></circle><circle r="2" cx="907" cy="283"></circle><circle r="4" cx="723" cy="399"></circle><circle r="4" cx="474" cy="340"></circle><circle r="2" cx="548" cy="19"></circle><circle r="3" cx="258" cy="42"></circle><circle r="3" cx="320" cy="73"></circle><circle r="0" cx="863" cy="395"></circle><circle r="0" cx="222" cy="496"></circle><circle r="5" cx="101" cy="421"></circle><circle r="8" cx="354" cy="536"></circle><circle r="1" cx="295" cy="351"></circle><circle r="6" cx="828" cy="402"></circle><circle r="0" cx="403" cy="61"></circle><circle r="7" cx="364" cy="452"></circle><circle r="1" cx="436" cy="378"></circle><circle r="7" cx="607" cy="126"></circle><circle r="9" cx="942" cy="6"></circle><circle r="3" cx="783" cy="194"></circle><circle r="8" cx="435" cy="182"></circle><circle r="-2" cx="154" cy="460"></circle><circle r="6" cx="171" cy="43"></circle><circle r="5" cx="470" cy="249"></circle><circle r="6" cx="604" cy="524"></circle><circle r="8" cx="651" cy="234"></circle><circle r="0" cx="953" cy="369"></circle><circle r="7" cx="491" cy="475"></circle><circle r="5" cx="188" cy="511"></circle><circle r="0" cx="586" cy="295"></circle><circle r="3" cx="481" cy="279"></circle><circle r="1" cx="745" cy="83"></circle><circle r="2" cx="938" cy="341"></circle><circle r="1" cx="749" cy="15"></circle><circle r="2" cx="691" cy="9"></circle><circle r="9" cx="541" cy="354"></circle><circle r="6" cx="472" cy="125"></circle><circle r="-1" cx="360" cy="46"></circle><circle r="-2" cx="816" cy="515"></circle><circle r="1" cx="305" cy="31"></circle><circle r="3" cx="17" cy="281"></circle><circle r="7" cx="258" cy="153"></circle><circle r="5" cx="732" cy="517"></circle><circle r="-2" cx="530" cy="497"></circle><circle r="4" cx="734" cy="358"></circle><circle r="9" cx="462" cy="394"></circle><circle r="0" cx="133" cy="15"></circle><circle r="-1" cx="367" cy="122"></circle><circle r="-1" cx="606" cy="472"></circle><circle r="8" cx="341" cy="191"></circle><circle r="-2" cx="461" cy="427"></circle><circle r="8" cx="651" cy="12"></circle><circle r="9" cx="247" cy="456"></circle><circle r="4" cx="817" cy="24"></circle><circle r="4" cx="876" cy="123"></circle><circle r="2" cx="30" cy="470"></circle><circle r="8" cx="639" cy="123"></circle><circle r="5" cx="880" cy="150"></circle><circle r="8" cx="567" cy="79"></circle><circle r="-1" cx="680" cy="360"></circle><circle r="9" cx="946" cy="77"></circle><circle r="5" cx="555" cy="533"></circle><circle r="8" cx="589" cy="352"></circle><circle r="9" cx="676" cy="154"></circle><circle r="8" cx="703" cy="103"></circle><circle r="-1" cx="912" cy="39"></circle><circle r="5" cx="437" cy="51"></circle><circle r="5" cx="299" cy="276"></circle><circle r="2" cx="212" cy="237"></circle><circle r="6" cx="833" cy="244"></circle><circle r="3" cx="78" cy="520"></circle><circle r="3" cx="395" cy="140"></circle><circle r="1" cx="174" cy="237"></circle><circle r="0" cx="407" cy="338"></circle><circle r="3" cx="684" cy="513"></circle><circle r="6" cx="811" cy="133"></circle><circle r="8" cx="122" cy="153"></circle><circle r="7" cx="73" cy="444"></circle><circle r="0" cx="104" cy="467"></circle><circle r="-2" cx="258" cy="387"></circle><circle r="-1" cx="579" cy="516"></circle><circle r="4" cx="541" cy="115"></circle><circle r="-2" cx="815" cy="333"></circle><circle r="2" cx="108" cy="35"></circle><circle r="-1" cx="121" cy="399"></circle><circle r="2" cx="79" cy="199"></circle><circle r="2" cx="819" cy="100"></circle><circle r="3" cx="800" cy="271"></circle><circle r="-1" cx="19" cy="374"></circle><circle r="9" cx="440" cy="522"></circle><circle r="0" cx="752" cy="167"></circle><circle r="7" cx="642" cy="447"></circle><circle r="6" cx="849" cy="515"></circle><circle r="9" cx="51" cy="254"></circle><circle r="6" cx="236" cy="81"></circle><circle r="5" cx="62" cy="6"></circle><circle r="5" cx="372" cy="345"></circle><circle r="0" cx="504" cy="398"></circle><circle r="6" cx="78" cy="316"></circle><circle r="2" cx="710" cy="477"></circle><circle r="4" cx="294" cy="421"></circle><circle r="7" cx="277" cy="83"></circle><circle r="-1" cx="398" cy="431"></circle><circle r="8" cx="916" cy="197"></circle><circle r="4" cx="862" cy="102"></circle><circle r="8" cx="424" cy="24"></circle><circle r="0" cx="48" cy="388"></circle><circle r="8" cx="551" cy="286"></circle><circle r="9" cx="312" cy="219"></circle><circle r="-2" cx="8" cy="55"></circle><circle r="7" cx="173" cy="398"></circle><circle r="-2" cx="738" cy="129"></circle><circle r="2" cx="943" cy="296"></circle><circle r="5" cx="871" cy="240"></circle><circle r="3" cx="274" cy="472"></circle><circle r="5" cx="290" cy="527"></circle><circle r="9" cx="323" cy="351"></circle><circle r="1" cx="847" cy="208"></circle><circle r="1" cx="570" cy="50"></circle><circle r="6" cx="329" cy="18"></circle><circle r="0" cx="936" cy="50"></circle><circle r="5" cx="507" cy="51"></circle><circle r="2" cx="571" cy="325"></circle><circle r="6" cx="515" cy="99"></circle><circle r="7" cx="269" cy="117"></circle><circle r="1" cx="124" cy="529"></circle><circle r="0" cx="837" cy="66"></circle><circle r="8" cx="910" cy="336"></circle><circle r="-1" cx="189" cy="123"></circle><circle r="-1" cx="500" cy="236"></circle><circle r="2" cx="521" cy="11"></circle><circle r="5" cx="71" cy="54"></circle><circle r="-1" cx="537" cy="405"></circle><circle r="2" cx="578" cy="118"></circle><circle r="2" cx="709" cy="288"></circle><circle r="7" cx="468" cy="523"></circle><circle r="4" cx="250" cy="510"></circle><circle r="9" cx="410" cy="290"></circle><circle r="-1" cx="458" cy="315"></circle><circle r="2" cx="54" cy="34"></circle><circle r="0" cx="947" cy="473"></circle><circle r="3" cx="16" cy="151"></circle><circle r="9" cx="801" cy="60"></circle><circle r="1" cx="188" cy="192"></circle><circle r="5" cx="757" cy="196"></circle><circle r="-2" cx="542" cy="174"></circle><circle r="4" cx="799" cy="475"></circle><circle r="0" cx="411" cy="485"></circle><circle r="3" cx="346" cy="417"></circle><circle r="5" cx="909" cy="435"></circle><circle r="7" cx="141" cy="254"></circle><circle r="8" cx="181" cy="453"></circle><circle r="-2" cx="301" cy="246"></circle><circle r="-2" cx="44" cy="498"></circle><circle r="5" cx="216" cy="176"></circle><circle r="0" cx="23" cy="6"></circle><circle r="1" cx="516" cy="174"></circle><circle r="8" cx="941" cy="208"></circle><circle r="2" cx="119" cy="373"></circle><circle r="3" cx="161" cy="205"></circle><circle r="0" cx="413" cy="214"></circle><circle r="9" cx="833" cy="369"></circle><circle r="8" cx="172" cy="332"></circle><circle r="7" cx="776" cy="457"></circle><circle r="0" cx="215" cy="383"></circle><circle r="9" cx="713" cy="248"></circle><circle r="8" cx="53" cy="121"></circle><circle r="5" cx="745" cy="57"></circle><circle r="2" cx="49" cy="208"></circle><circle r="1" cx="911" cy="380"></circle><circle r="1" cx="638" cy="167"></circle><circle r="9" cx="843" cy="330"></circle><circle r="9" cx="322" cy="432"></circle><circle r="8" cx="648" cy="356"></circle><circle r="3" cx="911" cy="234"></circle><circle r="-2" cx="864" cy="71"></circle><circle r="2" cx="384" cy="294"></circle><circle r="6" cx="611" cy="215"></circle><circle r="5" cx="782" cy="3"></circle><circle r="-2" cx="861" cy="293"></circle><circle r="8" cx="619" cy="2"></circle><circle r="9" cx="382" cy="533"></circle><circle r="9" cx="253" cy="319"></circle><circle r="9" cx="890" cy="466"></circle><circle r="1" cx="136" cy="220"></circle><circle r="3" cx="255" cy="182"></circle><circle r="-1" cx="725" cy="176"></circle><circle r="8" cx="526" cy="136"></circle><circle r="0" cx="78" cy="166"></circle><circle r="3" cx="775" cy="432"></circle><circle r="9" cx="827" cy="162"></circle><circle r="1" cx="437" cy="235"></circle><circle r="6" cx="904" cy="76"></circle><circle r="3" cx="367" cy="215"></circle><circle r="0" cx="335" cy="239"></circle><circle r="5" cx="781" cy="248"></circle><circle r="3" cx="915" cy="13"></circle><circle r="7" cx="184" cy="282"></circle><circle r="7" cx="915" cy="142"></circle><circle r="-1" cx="765" cy="374"></circle><circle r="9" cx="134" cy="99"></circle><circle r="1" cx="16" cy="233"></circle><circle r="5" cx="749" cy="265"></circle><circle r="-1" cx="583" cy="145"></circle><circle r="3" cx="426" cy="432"></circle><circle r="7" cx="378" cy="406"></circle><circle r="5" cx="391" cy="268"></circle><circle r="2" cx="879" cy="183"></circle><circle r="4" cx="96" cy="83"></circle><circle r="1" cx="793" cy="301"></circle><circle r="9" cx="91" cy="288"></circle><circle r="8" cx="348" cy="367"></circle><circle r="2" cx="851" cy="29"></circle><circle r="-1" cx="328" cy="321"></circle><circle r="-1" cx="264" cy="206"></circle><circle r="6" cx="336" cy="498"></circle><circle r="-2" cx="600" cy="181"></circle><circle r="6" cx="135" cy="331"></circle><circle r="4" cx="207" cy="99"></circle><circle r="6" cx="642" cy="297"></circle><circle r="3" cx="630" cy="421"></circle><circle r="8" cx="194" cy="75"></circle><circle r="5" cx="301" cy="314"></circle><circle r="0" cx="105" cy="113"></circle><circle r="3" cx="558" cy="238"></circle><circle r="3" cx="666" cy="197"></circle><circle r="2" cx="269" cy="358"></circle><circle r="3" cx="487" cy="209"></circle><circle r="0" cx="855" cy="167"></circle><circle r="3" cx="604" cy="39"></circle><circle r="2" cx="731" cy="316"></circle><circle r="-1" cx="944" cy="412"></circle><circle r="5" cx="323" cy="393"></circle><circle r="4" cx="176" cy="367"></circle><circle r="1" cx="900" cy="522"></circle><circle r="3" cx="743" cy="220"></circle><circle r="9" cx="872" cy="445"></circle><circle r="2" cx="9" cy="306"></circle><circle r="6" cx="480" cy="174"></circle><circle r="9" cx="453" cy="474"></circle><circle r="3" cx="192" cy="28"></circle><circle r="6" cx="641" cy="323"></circle><circle r="0" cx="337" cy="154"></circle><circle r="7" cx="700" cy="131"></circle><circle r="6" cx="514" cy="364"></circle><circle r="4" cx="15" cy="102"></circle><circle r="2" cx="379" cy="10"></circle><circle r="7" cx="610" cy="372"></circle><circle r="-1" cx="743" cy="421"></circle><circle r="1" cx="359" cy="78"></circle><circle r="8" cx="222" cy="438"></circle><circle r="0" cx="778" cy="157"></circle><circle r="7" cx="918" cy="169"></circle><circle r="4" cx="640" cy="91"></circle><circle r="9" cx="478" cy="65"></circle><circle r="9" cx="98" cy="539"></circle><circle r="-2" cx="491" cy="510"></circle><circle r="3" cx="74" cy="226"></circle><circle r="-1" cx="951" cy="150"></circle><circle r="9" cx="540" cy="204"></circle><circle r="-1" cx="850" cy="131"></circle><circle r="-1" cx="689" cy="51"></circle><circle r="3" cx="637" cy="536"></circle><circle r="-1" cx="298" cy="164"></circle><circle r="3" cx="562" cy="413"></circle><circle r="9" cx="85" cy="133"></circle><circle r="8" cx="642" cy="262"></circle><circle r="7" cx="144" cy="413"></circle><circle r="3" cx="397" cy="367"></circle><circle r="4" cx="77" cy="476"></circle><circle r="6" cx="855" cy="263"></circle><circle r="8" cx="770" cy="348"></circle><circle r="-2" cx="951" cy="246"></circle><circle r="0" cx="529" cy="315"></circle><circle r="4" cx="636" cy="379"></circle><circle r="8" cx="263" cy="415"></circle><circle r="-2" cx="260" cy="15"></circle><circle r="0" cx="378" cy="494"></circle><circle r="1" cx="105" cy="496"></circle><circle r="4" cx="685" cy="312"></circle><circle r="-1" cx="157" cy="125"></circle><circle r="7" cx="796" cy="365"></circle><circle r="-1" cx="652" cy="494"></circle><circle r="4" cx="43" cy="326"></circle><circle r="7" cx="225" cy="9"></circle><circle r="-1" cx="577" cy="443"></circle><circle r="6" cx="297" cy="377"></circle><circle r="4" cx="624" cy="192"></circle><circle r="-2" cx="89" cy="13"></circle><circle r="3" cx="387" cy="234"></circle><circle r="1" cx="741" cy="492"></circle><circle r="5" cx="172" cy="426"></circle><circle r="2" cx="103" cy="257"></circle><circle r="8" cx="890" cy="304"></circle><circle r="0" cx="881" cy="365"></circle><circle r="-1" cx="233" cy="51"></circle><circle r="-1" cx="95" cy="344"></circle><circle r="9" cx="917" cy="491"></circle><circle r="-1" cx="20" cy="202"></circle><circle r="1" cx="469" cy="495"></circle><circle r="6" cx="256" cy="276"></circle><circle r="5" cx="389" cy="461"></circle><circle r="1" cx="223" cy="332"></circle><circle r="8" cx="922" cy="457"></circle><circle r="1" cx="140" cy="51"></circle><circle r="6" cx="776" cy="59"></circle><circle r="4" cx="485" cy="308"></circle><circle r="-1" cx="533" cy="62"></circle><circle r="2" cx="921" cy="103"></circle><circle r="4" cx="119" cy="296"></circle><circle r="8" cx="80" cy="401"></circle><circle r="7" cx="877" cy="14"></circle><circle r="3" cx="710" cy="71"></circle><circle r="6" cx="273" cy="301"></circle><circle r="9" cx="56" cy="292"></circle><circle r="2" cx="713" cy="538"></circle><circle r="9" cx="587" cy="260"></circle><circle r="-2" cx="164" cy="169"></circle><circle r="9" cx="670" cy="31"></circle><circle r="8" cx="559" cy="490"></circle><circle r="5" cx="844" cy="463"></circle><circle r="9" cx="135" cy="482"></circle><circle r="5" cx="197" cy="479"></circle><circle r="1" cx="106" cy="221"></circle><circle r="5" cx="221" cy="203"></circle><circle r="3" cx="534" cy="229"></circle><circle r="-2" cx="766" cy="525"></circle><circle r="0" cx="673" cy="91"></circle><circle r="3" cx="250" cy="235"></circle><circle r="2" cx="746" cy="291"></circle><circle r="7" cx="689" cy="212"></circle><circle r="-1" cx="50" cy="153"></circle><circle r="-2" cx="571" cy="188"></circle><circle r="3" cx="774" cy="99"></circle><circle r="7" cx="698" cy="182"></circle><circle r="4" cx="673" cy="281"></circle><circle r="1" cx="808" cy="205"></circle><circle r="8" cx="439" cy="346"></circle><circle r="3" cx="50" cy="357"></circle><circle r="-1" cx="884" cy="417"></circle><circle r="4" cx="416" cy="535"></circle><circle r="8" cx="302" cy="191"></circle><circle r="1" cx="4" cy="445"></circle><circle r="4" cx="275" cy="445"></circle><circle r="4" cx="214" cy="150"></circle><circle r="1" cx="513" cy="444"></circle><circle r="4" cx="6" cy="179"></circle><circle r="4" cx="42" cy="527"></circle><circle r="1" cx="671" cy="252"></circle><circle r="-1" cx="708" cy="328"></circle><circle r="8" cx="352" cy="266"></circle><circle r="1" cx="874" cy="497"></circle><circle r="7" cx="823" cy="486"></circle><circle r="-1" cx="410" cy="403"></circle><circle r="5" cx="455" cy="273"></circle><circle r="7" cx="379" cy="99"></circle><circle r="7" cx="417" cy="460"></circle><circle r="4" cx="507" cy="290"></circle><circle r="-2" cx="792" cy="402"></circle><circle r="8" cx="359" cy="170"></circle><circle r="9" cx="159" cy="512"></circle><circle r="-1" cx="218" cy="304"></circle><circle r="7" cx="45" cy="432"></circle><circle r="3" cx="665" cy="537"></circle><circle r="8" cx="24" cy="34"></circle><circle r="3" cx="668" cy="432"></circle><circle r="-2" cx="2" cy="488"></circle><circle r="8" cx="387" cy="38"></circle><circle r="0" cx="573" cy="389"></circle><circle r="8" cx="955" cy="115"></circle><circle r="-2" cx="291" cy="54"></circle><circle r="1" cx="888" cy="220"></circle><circle r="4" cx="169" cy="11"></circle><circle r="7" cx="215" cy="358"></circle><circle r="2" cx="340" cy="298"></circle><circle r="3" cx="577" cy="20"></circle><circle r="3" cx="716" cy="208"></circle><circle r="6" cx="138" cy="192"></circle><circle r="-1" cx="624" cy="505"></circle><circle r="4" cx="785" cy="131"></circle><circle r="9" cx="318" cy="536"></circle><circle r="8" cx="125" cy="74"></circle><circle r="3" cx="7" cy="342"></circle><circle r="9" cx="35" cy="72"></circle><circle r="9" cx="296" cy="112"></circle><circle r="5" cx="497" cy="155"></circle><circle r="2" cx="825" cy="297"></circle><circle r="9" cx="871" cy="333"></circle><circle r="-2" cx="462" cy="152"></circle><circle r="7" cx="943" cy="507"></circle><circle r="3" cx="199" cy="410"></circle><circle r="-2" cx="951" cy="177"></circle><circle r="5" cx="639" cy="44"></circle><circle r="1" cx="688" cy="414"></circle><circle r="7" cx="300" cy="464"></circle><circle r="3" cx="737" cy="455"></circle><circle r="7" cx="433" cy="95"></circle><circle r="6" cx="226" cy="528"></circle><circle r="2" cx="157" cy="302"></circle><circle r="2" cx="725" cy="40"></circle><circle r="9" cx="515" cy="531"></circle><circle r="9" cx="772" cy="222"></circle><circle r="3" cx="692" cy="456"></circle><circle r="9" cx="875" cy="45"></circle><circle r="4" cx="221" cy="469"></circle><circle r="0" cx="502" cy="124"></circle><circle r="4" cx="400" cy="515"></circle><circle r="1" cx="148" cy="383"></circle><circle r="2" cx="236" cy="404"></circle><circle r="5" cx="293" cy="4"></circle><circle r="8" cx="298" cy="493"></circle><circle r="0" cx="242" cy="108"></circle><circle r="0" cx="406" cy="168"></circle><circle r="5" cx="614" cy="64"></circle><circle r="7" cx="458" cy="202"></circle><circle r="7" cx="119" cy="446"></circle><circle r="2" cx="928" cy="259"></circle><circle r="-1" cx="666" cy="471"></circle><circle r="2" cx="488" cy="369"></circle><circle r="3" cx="763" cy="312"></circle><circle r="-2" cx="229" cy="268"></circle><circle r="0" cx="485" cy="90"></circle><circle r="3" cx="556" cy="143"></circle><circle r="5" cx="604" cy="418"></circle><circle r="6" cx="846" cy="434"></circle><circle r="8" cx="589" cy="229"></circle><circle r="-2" cx="187" cy="538"></circle><circle r="9" cx="338" cy="454"></circle><circle r="-2" cx="953" cy="445"></circle><circle r="5" cx="786" cy="506"></circle><circle r="2" cx="697" cy="390"></circle><circle r="8" cx="447" cy="12"></circle><circle r="1" cx="672" cy="127"></circle><circle r="7" cx="323" cy="263"></circle><circle r="9" cx="837" cy="2"></circle><circle r="0" cx="364" cy="314"></circle><circle r="3" cx="406" cy="99"></circle><circle r="1" cx="614" cy="250"></circle><circle r="2" cx="606" cy="331"></circle><circle r="4" cx="723" cy="11"></circle><circle r="2" cx="916" cy="308"></circle><circle r="5" cx="802" cy="175"></circle><circle r="0" cx="480" cy="446"></circle><circle r="9" cx="418" cy="265"></circle><circle r="-1" cx="892" cy="102"></circle><circle r="8" cx="264" cy="532"></circle><circle r="-2" cx="769" cy="485"></circle><circle r="2" cx="165" cy="262"></circle><circle r="8" cx="278" cy="260"></circle><circle r="9" cx="801" cy="230"></circle><circle r="-1" cx="190" cy="309"></circle><circle r="-2" cx="888" cy="259"></circle><circle r="-1" cx="457" cy="85"></circle><circle r="4" cx="668" cy="335"></circle><circle r="4" cx="142" cy="358"></circle><circle r="4" cx="435" cy="144"></circle><circle r="-2" cx="579" cy="472"></circle><circle r="7" cx="237" cy="135"></circle><circle r="5" cx="172" cy="487"></circle><circle r="5" cx="428" cy="310"></circle><circle r="3" cx="56" cy="179"></circle><circle r="5" cx="612" cy="155"></circle><circle r="5" cx="9" cy="535"></circle><circle r="3" cx="611" cy="444"></circle><circle r="5" cx="772" cy="284"></circle><circle r="-2" cx="482" cy="3"></circle><circle r="1" cx="282" cy="226"></circle><circle r="-2" cx="503" cy="340"></circle><circle r="-1" cx="632" cy="473"></circle><circle r="5" cx="791" cy="31"></circle><circle r="4" cx="528" cy="36"></circle><circle r="5" cx="194" cy="219"></circle><circle r="7" cx="599" cy="497"></circle><circle r="7" cx="660" cy="64"></circle><circle r="4" cx="956" cy="32"></circle><circle r="-1" cx="788" cy="328"></circle><circle r="5" cx="27" cy="126"></circle><circle r="2" cx="792" cy="533"></circle><circle r="-2" cx="873" cy="534"></circle><circle r="5" cx="130" cy="128"></circle><circle r="-2" cx="707" cy="362"></circle><circle r="9" cx="514" cy="204"></circle><circle r="3" cx="831" cy="537"></circle><circle r="4" cx="276" cy="333"></circle><circle r="0" cx="306" cy="139"></circle><circle r="2" cx="462" cy="364"></circle><circle r="9" cx="77" cy="265"></circle><circle r="9" cx="5" cy="257"></circle><circle r="-1" cx="1" cy="20"></circle><circle r="-2" cx="752" cy="396"></circle><circle r="-1" cx="911" cy="406"></circle><circle r="9" cx="198" cy="338"></circle><circle r="2" cx="180" cy="147"></circle><circle r="6" cx="538" cy="431"></circle><circle r="7" cx="350" cy="2"></circle><circle r="-1" cx="206" cy="52"></circle><circle r="9" cx="332" cy="46"></circle><circle r="2" cx="193" cy="2"></circle><circle r="8" cx="830" cy="189"></circle><circle r="3" cx="509" cy="260"></circle><circle r="4" cx="246" cy="482"></circle><circle r="8" cx="826" cy="271"></circle><circle r="-2" cx="797" cy="86"></circle><circle r="2" cx="857" cy="356"></circle><circle r="3" cx="81" cy="105"></circle><circle r="4" cx="493" cy="423"></circle><circle r="-1" cx="687" cy="487"></circle><circle r="5" cx="438" cy="495"></circle><circle r="0" cx="355" cy="479"></circle><circle r="5" cx="104" cy="319"></circle><circle r="6" cx="953" cy="320"></circle><circle r="6" cx="541" cy="88"></circle><circle r="2" cx="709" cy="156"></circle><circle r="3" cx="613" cy="307"></circle><circle r="3" cx="141" cy="281"></circle><circle r="9" cx="498" cy="23"></circle></g></svg>