<svg width="109" height="50" viewBox="0 0 109 50" fill="none" xmlns="http://www.w3.org/2000/svg">
<path d="M0.143997 1.832C0.143997 1.26646 0.602493 0.808001 1.168 0.808001H5.52C6.0855 0.808001 6.544 1.26646 6.544 1.832V47.528C6.544 48.2349 5.97094 48.808 5.264 48.808H1.168C0.602493 48.808 0.143997 48.3495 0.143997 47.784V1.832Z" fill="#457BE0"/>
<path d="M25.2654 37.707L23.0716 33.9484C22.7865 33.4599 22.1465 33.2714 21.6422 33.5274L2.72123 43.1281C2.2169 43.384 2.03917 43.9874 2.32425 44.4759L4.51804 48.2345C4.80312 48.7229 5.44306 48.9114 5.94739 48.6555L24.8684 39.0547C25.3727 38.7988 25.5504 38.1954 25.2654 37.707Z" fill="#457BE0"/>
<path d="M25.3934 11.9639L23.1996 15.7225C22.9145 16.211 22.2746 16.3995 21.7702 16.1436L11.3266 10.8443C10.8223 10.5884 10.6446 9.98503 10.9297 9.4966L13.1235 5.73799C13.4085 5.24956 14.0485 5.06106 14.5528 5.31696L24.9964 10.6162C25.5007 10.8721 25.6784 11.4755 25.3934 11.9639Z" fill="#457BE0"/>
<path d="M24.592 10.536H20.24C19.6745 10.536 19.216 10.9945 19.216 11.56V38.056C19.216 38.6215 19.6745 39.08 20.24 39.08H24.592C25.1575 39.08 25.616 38.6215 25.616 38.056V11.56C25.616 10.9945 25.1575 10.536 24.592 10.536Z" fill="#457BE0"/>
<path d="M13.84 5.16H9.488C8.92246 5.16 8.464 5.61846 8.464 6.184V18.6C8.464 19.1655 8.92246 19.624 9.488 19.624H13.84C14.4055 19.624 14.864 19.1655 14.864 18.6V6.184C14.864 5.61846 14.4055 5.16 13.84 5.16Z" fill="#457BE0"/>
<path d="M39.38 32H30.1C29.8467 32 29.66 31.9467 29.54 31.84C29.4333 31.72 29.38 31.5333 29.38 31.28V18.32C29.38 18.0667 29.4333 17.8867 29.54 17.78C29.66 17.66 29.8467 17.6 30.1 17.6H39.38C39.6333 17.6 39.8133 17.66 39.92 17.78C40.04 17.8867 40.1 18.0667 40.1 18.32V20.66C40.1 20.9133 40.04 21.1 39.92 21.22C39.8133 21.3267 39.6333 21.38 39.38 21.38H33.86V22.92H37.76C38.0133 22.92 38.1933 22.98 38.3 23.1C38.42 23.2067 38.48 23.3867 38.48 23.64V25.78C38.48 26.0333 38.42 26.22 38.3 26.34C38.1933 26.4467 38.0133 26.5 37.76 26.5H33.86V28.22H39.38C39.6333 28.22 39.8133 28.28 39.92 28.4C40.04 28.5067 40.1 28.6867 40.1 28.94V31.28C40.1 31.5333 40.04 31.72 39.92 31.84C39.8133 31.9467 39.6333 32 39.38 32ZM50.9859 32H45.7859C45.5326 32 45.3193 31.9533 45.1459 31.86C44.9859 31.7667 44.8593 31.5933 44.7659 31.34L42.8059 26.44C42.6859 26.1467 42.5859 25.8933 42.5059 25.68C42.4259 25.4533 42.3593 25.24 42.3059 25.04C42.2526 24.84 42.2126 24.6333 42.1859 24.42C42.1726 24.1933 42.1659 23.92 42.1659 23.6V18.32C42.1659 18.0667 42.2193 17.8867 42.3259 17.78C42.4459 17.66 42.6326 17.6 42.8859 17.6H46.0659C46.3193 17.6 46.5126 17.66 46.6459 17.78C46.7793 17.8867 46.8459 18.0667 46.8459 18.32V23.84C46.8459 23.9733 46.8593 24.1067 46.8859 24.24C46.9126 24.3733 46.9526 24.5133 47.0059 24.66L47.9459 27.46C47.9859 27.5933 48.0326 27.6867 48.0859 27.74C48.1393 27.78 48.2193 27.8 48.3259 27.8H48.5459C48.6526 27.8 48.7326 27.78 48.7859 27.74C48.8393 27.6867 48.8859 27.5933 48.9259 27.46L49.8659 24.64C49.9193 24.4933 49.9593 24.3533 49.9859 24.22C50.0126 24.0867 50.0259 23.9533 50.0259 23.82V18.32C50.0259 18.0667 50.0793 17.8867 50.1859 17.78C50.3059 17.66 50.4926 17.6 50.7459 17.6H53.8859C54.1393 17.6 54.3193 17.66 54.4259 17.78C54.5459 17.8867 54.6059 18.0667 54.6059 18.32V23.6C54.6059 23.92 54.5926 24.1933 54.5659 24.42C54.5526 24.6333 54.5193 24.84 54.4659 25.04C54.4126 25.24 54.3459 25.4533 54.2659 25.68C54.1859 25.8933 54.0859 26.1467 53.9659 26.44L52.0059 31.34C51.9126 31.5933 51.7793 31.7667 51.6059 31.86C51.4459 31.9533 51.2393 32 50.9859 32ZM68.0753 32H61.7753C60.1086 32 58.8686 31.6667 58.0553 31C57.2553 30.3333 56.8553 29.3067 56.8553 27.92V21.68C56.8553 20.2933 57.2553 19.2667 58.0553 18.6C58.8686 17.9333 60.1086 17.6 61.7753 17.6H66.7753C67.0286 17.6 67.2086 17.66 67.3153 17.78C67.4353 17.8867 67.4953 18.0667 67.4953 18.32V20.74C67.4953 20.9933 67.4353 21.18 67.3153 21.3C67.2086 21.4067 67.0286 21.46 66.7753 21.46H62.6153C62.202 21.46 61.8953 21.5467 61.6953 21.72C61.4953 21.88 61.3953 22.1267 61.3953 22.46V27.24C61.3953 27.5733 61.4686 27.82 61.6153 27.98C61.7753 28.14 62.0086 28.22 62.3153 28.22H64.2553V25.1C64.2553 24.8467 64.3086 24.6667 64.4153 24.56C64.5353 24.44 64.722 24.38 64.9753 24.38H68.0753C68.3286 24.38 68.5086 24.44 68.6153 24.56C68.7353 24.6667 68.7953 24.8467 68.7953 25.1V31.28C68.7953 31.5333 68.7353 31.72 68.6153 31.84C68.5086 31.9467 68.3286 32 68.0753 32ZM81.2355 32H71.9555C71.7021 32 71.5155 31.9467 71.3955 31.84C71.2888 31.72 71.2355 31.5333 71.2355 31.28V18.32C71.2355 18.0667 71.2888 17.8867 71.3955 17.78C71.5155 17.66 71.7021 17.6 71.9555 17.6H81.2355C81.4888 17.6 81.6688 17.66 81.7755 17.78C81.8955 17.8867 81.9555 18.0667 81.9555 18.32V20.66C81.9555 20.9133 81.8955 21.1 81.7755 21.22C81.6688 21.3267 81.4888 21.38 81.2355 21.38H75.7155V22.92H79.6155C79.8688 22.92 80.0488 22.98 80.1555 23.1C80.2755 23.2067 80.3355 23.3867 80.3355 23.64V25.78C80.3355 26.0333 80.2755 26.22 80.1555 26.34C80.0488 26.4467 79.8688 26.5 79.6155 26.5H75.7155V28.22H81.2355C81.4888 28.22 81.6688 28.28 81.7755 28.4C81.8955 28.5067 81.9555 28.6867 81.9555 28.94V31.28C81.9555 31.5333 81.8955 31.72 81.7755 31.84C81.6688 31.9467 81.4888 32 81.2355 32ZM91.0014 32H84.6814C84.4281 32 84.2414 31.9467 84.1214 31.84C84.0147 31.72 83.9614 31.5333 83.9614 31.28V28.94C83.9614 28.6867 84.0147 28.5067 84.1214 28.4C84.2414 28.28 84.4281 28.22 84.6814 28.22H90.0614C90.2347 28.22 90.3614 28.1667 90.4414 28.06C90.5347 27.94 90.5814 27.8 90.5814 27.64C90.5814 27.4133 90.5347 27.2467 90.4414 27.14C90.3614 27.0333 90.2347 26.9733 90.0614 26.96L87.0614 26.54C86.1281 26.4067 85.3747 26.1 84.8014 25.62C84.2414 25.14 83.9614 24.34 83.9614 23.22V21.12C83.9614 19.9867 84.3281 19.12 85.0614 18.52C85.7947 17.9067 86.8081 17.6 88.1014 17.6H93.7014C93.9547 17.6 94.1347 17.66 94.2414 17.78C94.3614 17.8867 94.4214 18.0667 94.4214 18.32V20.7C94.4214 20.9533 94.3614 21.14 94.2414 21.26C94.1347 21.3667 93.9547 21.42 93.7014 21.42H89.0414C88.8681 21.42 88.7347 21.48 88.6414 21.6C88.5481 21.7067 88.5014 21.8467 88.5014 22.02C88.5014 22.1933 88.5481 22.34 88.6414 22.46C88.7347 22.58 88.8681 22.6467 89.0414 22.66L92.0214 23.06C92.9547 23.1933 93.7081 23.5 94.2814 23.98C94.8547 24.46 95.1414 25.26 95.1414 26.38V28.48C95.1414 29.6133 94.7681 30.4867 94.0214 31.1C93.2881 31.7 92.2814 32 91.0014 32ZM103.934 32H100.694C100.441 32 100.254 31.9467 100.134 31.84C100.027 31.72 99.9739 31.5333 99.9739 31.28V21.46H97.0339C96.7806 21.46 96.5939 21.4067 96.4739 21.3C96.3672 21.18 96.3139 20.9933 96.3139 20.74V18.32C96.3139 18.0667 96.3672 17.8867 96.4739 17.78C96.5939 17.66 96.7806 17.6 97.0339 17.6H107.594C107.847 17.6 108.027 17.66 108.134 17.78C108.254 17.8867 108.314 18.0667 108.314 18.32V20.74C108.314 20.9933 108.254 21.18 108.134 21.3C108.027 21.4067 107.847 21.46 107.594 21.46H104.654V31.28C104.654 31.5333 104.594 31.72 104.474 31.84C104.367 31.9467 104.187 32 103.934 32Z" fill="black"/>
</svg>
