<svg version="1.1" xmlns="http://www.w3.org/2000/svg" viewBox="0 0 170.32626695224803 312.93059073172253" width="170.32626695224803" height="312.93059073172253"><!-- svg-source:excalidraw --><metadata></metadata><defs><style class="style-fonts">
      </style></defs><rect x="0" y="0" width="170.32626695224803" height="312.93059073172253" fill="#ffffff"></rect><g stroke-linecap="round" transform="translate(10 10.62874909368793) rotate(0 12.629576911699246 145.2011041213293)"><path d="M6.31 0 C10.48 0.3, 11.6 1.55, 18.94 0 C19.98 1.8, 23.83 1.67, 25.26 6.31 C25.36 63.45, 23.08 119.9, 25.26 284.09 C23.56 286.07, 19.79 289.53, 18.94 290.4 C16.25 289.38, 8.4 292.51, 6.31 290.4 C4.06 293.52, 1.83 288.15, 0 284.09 C1.35 206.12, 4.08 132.59, 0 6.31 C1.28 -0.18, 5.52 2.56, 6.31 0" stroke="none" stroke-width="0" fill="#1971c2"></path><path d="M6.31 0 C10.68 0.54, 14.67 -0.87, 18.94 0 M6.31 0 C10.66 0.56, 13.67 0.14, 18.94 0 M18.94 0 C24.29 1.92, 26.1 1.47, 25.26 6.31 M18.94 0 C20.95 2.25, 24 1.1, 25.26 6.31 M25.26 6.31 C25.22 112.65, 26.38 219.54, 25.26 284.09 M25.26 6.31 C26.54 97, 27.29 188.82, 25.26 284.09 M25.26 284.09 C27.2 288.23, 23.69 291.71, 18.94 290.4 M25.26 284.09 C27.38 286.12, 24.81 288.23, 18.94 290.4 M18.94 290.4 C13.95 291.61, 9.9 289.49, 6.31 290.4 M18.94 290.4 C14.47 290.36, 9.98 290.88, 6.31 290.4 M6.31 290.4 C2.38 289.68, -1.13 287.47, 0 284.09 M6.31 290.4 C2.24 292.65, 0.81 287.39, 0 284.09 M0 284.09 C-1.86 186.14, -1.42 88.78, 0 6.31 M0 284.09 C0.99 211.15, 1.59 136.96, 0 6.31 M0 6.31 C0.19 1.86, 2.34 -0.95, 6.31 0 M0 6.31 C-1.34 1.79, 1.32 0.7, 6.31 0" stroke="#1971c2" stroke-width="2" fill="none"></path></g><g stroke-linecap="round" transform="translate(77.69772060642208 197.06510664351435) rotate(248.63187498420325 12.629576911699246 68.9731205440221)"><path d="M6.31 0 C9.47 1.68, 13.85 1.09, 18.94 0 C21.73 -0.43, 21.8 1.19, 25.26 6.31 C24.57 52.71, 24.44 96.14, 25.26 131.63 C21.89 134.97, 25.02 135.37, 18.94 137.95 C13.72 139.99, 13.02 139.82, 6.31 137.95 C3.93 137.8, -0.95 134.38, 0 131.63 C3.44 83.25, 1.46 31.46, 0 6.31 C3.42 4.67, 3.09 1.65, 6.31 0" stroke="none" stroke-width="0" fill="#1971c2"></path><path d="M6.31 0 C9.76 -0.87, 15 -0.52, 18.94 0 M6.31 0 C10.43 0.08, 15.36 0.48, 18.94 0 M18.94 0 C23.99 -0.64, 23.34 4.06, 25.26 6.31 M18.94 0 C21.89 -1.01, 27.22 1.66, 25.26 6.31 M25.26 6.31 C27.55 51.17, 26.12 99.49, 25.26 131.63 M25.26 6.31 C25.73 42.52, 25.95 77.77, 25.26 131.63 M25.26 131.63 C25.79 137.15, 25 136.06, 18.94 137.95 M25.26 131.63 C26.92 133.67, 25.42 138.8, 18.94 137.95 M18.94 137.95 C16.69 137.21, 13.32 138.44, 6.31 137.95 M18.94 137.95 C16.22 138.5, 12.73 137.72, 6.31 137.95 M6.31 137.95 C0.97 137.11, 0.12 137.79, 0 131.63 M6.31 137.95 C2.91 137.04, 1.2 136.41, 0 131.63 M0 131.63 C-0.07 85.81, 0.39 38.36, 0 6.31 M0 131.63 C0.75 103.85, -0.01 75.6, 0 6.31 M0 6.31 C0.24 1.16, 0.94 -0.27, 6.31 0 M0 6.31 C-0.79 2.81, 1.49 -1.37, 6.31 0" stroke="#1971c2" stroke-width="2" fill="none"></path></g><g stroke-linecap="round" transform="translate(135.06711312884954 71.54014100946961) rotate(0 12.629576911699246 90.62482907006688)"><path d="M6.31 0 C8.36 0.97, 13.52 -0.45, 18.94 0 C19.7 -0.91, 27.68 3.51, 25.26 6.31 C22.24 57.6, 20.57 112.47, 25.26 174.93 C27.13 176.56, 22.55 184.03, 18.94 181.25 C16.94 183.44, 13.61 181.37, 6.31 181.25 C1.15 179.78, 3.26 178.86, 0 174.93 C-1.47 134.25, 0.67 100.7, 0 6.31 C0.99 3.76, 1.58 2.85, 6.31 0" stroke="none" stroke-width="0" fill="#1971c2"></path><path d="M6.31 0 C10.71 -0.38, 15.64 1.18, 18.94 0 M6.31 0 C11.7 0.57, 16.62 -0.24, 18.94 0 M18.94 0 C21.24 1.96, 24.16 1.23, 25.26 6.31 M18.94 0 C25.12 -0.44, 26.79 2.66, 25.26 6.31 M25.26 6.31 C27.49 50.72, 26.64 91.98, 25.26 174.93 M25.26 6.31 C27.49 48.3, 26.79 91.01, 25.26 174.93 M25.26 174.93 C27.1 177.25, 24.6 179.36, 18.94 181.25 M25.26 174.93 C27.52 180, 22.2 181.32, 18.94 181.25 M18.94 181.25 C14.8 181.53, 8.2 181.62, 6.31 181.25 M18.94 181.25 C15.2 181.13, 10.93 181.1, 6.31 181.25 M6.31 181.25 C2.22 183.2, 0.7 178.35, 0 174.93 M6.31 181.25 C3.3 181.82, 1.58 177.15, 0 174.93 M0 174.93 C0.28 125.13, -0.56 77.23, 0 6.31 M0 174.93 C-1.36 109.13, -1.33 43.09, 0 6.31 M0 6.31 C-1.17 1.84, 1.42 0.61, 6.31 0 M0 6.31 C-0.62 0.73, 3.89 0.73, 6.31 0" stroke="#1971c2" stroke-width="2" fill="none"></path></g><g stroke-linecap="round" transform="translate(105.33491965864141 4.907716235156386) rotate(313.5081169319278 12.629576911699246 45.7472599309549)"><path d="M6.31 0 C10.16 -0.39, 13.63 -0.69, 18.94 0 C25.58 1.4, 25.88 0.54, 25.26 6.31 C21.22 29.91, 26.46 52.66, 25.26 85.18 C24.66 92.17, 21.6 88.88, 18.94 91.49 C15.12 91.6, 8.38 90.77, 6.31 91.49 C5.36 91.21, -2.6 92.65, 0 85.18 C2.91 62.85, 0.49 37.05, 0 6.31 C-0.53 4.95, -0.86 1.02, 6.31 0" stroke="none" stroke-width="0" fill="#1971c2"></path><path d="M6.31 0 C9.85 1.14, 13.5 -0.42, 18.94 0 M6.31 0 C10.77 -0.32, 14.09 0.5, 18.94 0 M18.94 0 C22.06 -0.88, 26.96 1.72, 25.26 6.31 M18.94 0 C24.68 0.56, 24.23 4.39, 25.26 6.31 M25.26 6.31 C25.18 25.36, 24.46 46.79, 25.26 85.18 M25.26 6.31 C26.29 34.24, 26.95 59.92, 25.26 85.18 M25.26 85.18 C26.7 87.5, 25.12 92.24, 18.94 91.49 M25.26 85.18 C24.31 89.46, 25.45 93.34, 18.94 91.49 M18.94 91.49 C15.38 91.99, 13.13 92.38, 6.31 91.49 M18.94 91.49 C13.71 91.19, 9.22 92.06, 6.31 91.49 M6.31 91.49 C2.81 90.7, 1.04 89.88, 0 85.18 M6.31 91.49 C3.68 89.5, -0.22 88.06, 0 85.18 M0 85.18 C-1.26 60.21, 2.07 36.61, 0 6.31 M0 85.18 C0.04 59.65, -0.66 34.93, 0 6.31 M0 6.31 C-0.69 2.72, 1.57 -1.2, 6.31 0 M0 6.31 C1.78 2.83, 2.58 -1.63, 6.31 0" stroke="#1971c2" stroke-width="2" fill="none"></path></g><g stroke-linecap="round" transform="translate(71.26173420697432 11.29536310022695) rotate(0 12.629576911699246 50.47499914552077)"><path d="M0.7 -0.79 L26.3 0.49 L26.63 99.22 L-0.2 99.79" stroke="none" stroke-width="0" fill="#1971c2"></path><path d="M0 0 C8.61 -0.96, 13.95 0.92, 25.26 0 M0 0 C9.05 1.06, 19.47 -0.36, 25.26 0 M25.26 0 C25.55 38, 27.06 76.73, 25.26 100.95 M25.26 0 C25.72 32.59, 26.69 66.66, 25.26 100.95 M25.26 100.95 C16.54 102.86, 3.31 102.46, 0 100.95 M25.26 100.95 C19.66 101.07, 15.88 101.85, 0 100.95 M0 100.95 C-1.73 78.26, -0.66 55.48, 0 0 M0 100.95 C-0.7 61.54, -0.08 23.93, 0 0" stroke="#1971c2" stroke-width="2" fill="none"></path></g></svg>